<!DOCTYPE svg PUBLIC "-//W3C//DTD SVG 20010904//EN" "http://www.w3.org/TR/2001/REC-SVG-20010904/DTD/svg10.dtd">
<svg version="1.0" xmlns="http://www.w3.org/2000/svg" width="626px" height="626px" viewBox="0 0 6260 6260" preserveAspectRatio="xMidYMid meet">
<g id="layer1" fill="#3f3f3f" stroke="none">
 <path d="M1035 6250 c-3 -5 -34 -10 -69 -10 -34 0 -66 -3 -69 -7 -4 -3 -19 -7 -34 -9 -66 -6 -103 -16 -178 -47 -48 -20 -79 -39 -77 -47 2 -7 -3 -10 -12 -7 -17 7 -86 -29 -104 -54 -7 -11 -19 -19 -27 -19 -8 0 -37 -22 -64 -48 -28 -27 -53 -47 -56 -44 -5 5 -9 -15 -6 -31 1 -5 -4 -5 -10 -1 -6 3 -15 0 -20 -7 -13 -20 -11 -31 4 -23 9 5 9 3 -1 -7 -11 -11 -14 -12 -21 -1 -7 11 -9 11 -13 0 -3 -7 -5 -16 -4 -19 0 -3 -14 -18 -31 -33 -18 -15 -33 -36 -33 -47 0 -10 -5 -18 -11 -16 -5 1 -24 -23 -41 -53 -17 -30 -34 -57 -38 -60 -3 -3 -9 -13 -13 -22 -6 -17 3 -23 26 -19 5 1 6 -3 3 -8 -3 -5 -15 -7 -26 -4 -12 3 -20 2 -19 -3 4 -18 -14 -64 -25 -64 -7 0 -6 -4 2 -9 11 -6 10 -10 -3 -15 -10 -3 -15 -12 -11 -21 3 -8 1 -17 -5 -20 -5 -4 -9 -12 -8 -18 1 -7 -1 -19 -4 -27 -28 -66 -31 -250 -34 -2290 -2 -1334 0 -2094 7 -2110 5 -14 12 -61 15 -105 6 -81 22 -162 35 -180 4 -5 15 -33 24 -62 9 -28 26 -61 36 -74 11 -12 20 -29 20 -38 0 -9 9 -22 20 -29 12 -7 19 -16 16 -21 -3 -4 2 -18 11 -30 12 -18 17 -20 25 -10 6 10 7 7 3 -8 -4 -16 0 -28 15 -40 12 -10 26 -28 31 -41 5 -13 14 -20 19 -17 6 4 7 11 4 17 -4 7 -2 8 5 4 7 -4 10 -13 8 -19 -6 -16 31 -67 48 -67 8 0 16 -9 20 -19 3 -10 19 -24 35 -31 17 -7 30 -16 30 -21 0 -12 91 -79 100 -74 4 3 10 -1 13 -9 3 -8 19 -17 36 -21 17 -4 29 -11 25 -16 -3 -5 6 -9 20 -9 14 0 26 -4 26 -9 0 -5 12 -12 28 -16 15 -3 41 -13 57 -20 50 -23 107 -35 201 -41 49 -3 94 -10 100 -15 16 -13 4175 -5 4282 9 91 11 184 31 192 41 3 4 38 17 78 31 39 13 72 28 72 35 0 6 10 12 22 12 13 1 24 7 26 13 2 5 9 10 16 10 7 0 25 11 40 25 15 14 30 25 33 25 16 0 92 73 87 82 -4 6 -3 8 3 5 5 -3 25 7 44 23 19 16 31 29 28 30 -4 0 9 16 27 36 19 20 31 41 27 47 -3 7 -2 9 2 4 10 -9 45 21 45 40 0 7 7 16 16 20 9 3 13 12 9 21 -3 9 -3 13 1 9 14 -14 99 156 89 181 -3 9 -3 13 1 9 15 -14 43 64 49 138 2 17 5 37 8 45 3 8 9 42 13 75 11 101 16 4204 5 4260 -5 28 -14 90 -20 138 -6 48 -14 93 -18 100 -4 7 -9 17 -10 22 -8 36 -38 111 -46 116 -5 3 -8 9 -7 13 1 4 -8 27 -20 51 -16 32 -26 42 -38 39 -13 -5 -14 -4 -3 4 11 8 7 19 -20 58 -43 62 -59 75 -84 69 -18 -4 -18 -3 -4 8 14 10 15 16 4 30 -7 9 -17 17 -24 17 -6 0 -11 7 -11 15 0 9 -11 20 -24 26 -13 6 -30 22 -37 35 -14 26 -35 33 -25 8 3 -9 2 -12 -5 -9 -6 4 -8 13 -5 20 2 7 -5 20 -17 29 -81 58 -108 76 -117 76 -5 0 -10 5 -10 11 0 6 -7 9 -15 5 -8 -3 -15 -1 -15 4 0 5 -7 7 -15 4 -11 -5 -13 -2 -9 10 6 15 -10 22 -38 17 -5 0 -8 4 -8 9 0 6 -8 10 -18 10 -10 0 -34 8 -54 19 -47 24 -106 38 -188 46 -36 4 -78 9 -95 13 -16 3 -281 8 -587 9 l-558 3 0 -1174 c0 -773 3 -1177 10 -1181 6 -3 10 0 10 7 0 10 2 10 9 0 4 -8 11 -13 15 -13 3 1 230 1 504 1 l497 0 -3 -520 c-2 -363 1 -520 8 -520 7 0 6 -5 -2 -14 -7 -8 -16 -12 -20 -10 -3 2 -9 -2 -11 -8 -4 -10 -6 -10 -6 0 -1 10 -106 12 -506 12 l-505 -1 0 -213 c0 -222 6 -288 22 -264 6 9 7 6 3 -9 -6 -22 29 -98 63 -136 40 -45 60 -47 524 -47 268 0 437 -4 433 -9 -3 -5 -1 -12 5 -16 5 -3 10 -12 10 -18 0 -7 -4 -6 -10 3 -8 13 -10 12 -10 -2 0 -10 6 -18 13 -18 9 0 9 -2 -1 -8 -10 -7 -12 -110 -10 -510 2 -276 1 -502 -2 -502 -4 0 -10 4 -15 9 -6 6 -220 12 -520 14 -280 3 -519 7 -530 9 -11 3 -27 8 -35 11 -87 32 -110 38 -122 31 -7 -4 -10 -4 -6 0 7 9 -68 53 -99 58 -9 2 -24 9 -33 16 -37 32 -92 62 -102 56 -6 -4 -8 -2 -5 3 4 6 -4 18 -17 27 -14 8 -35 26 -48 38 -13 13 -50 47 -81 76 -32 30 -65 65 -73 78 -9 13 -20 21 -25 18 -5 -3 -8 -1 -7 4 4 15 -42 73 -52 67 -6 -4 -7 1 -3 11 5 13 3 15 -7 9 -8 -5 -11 -4 -7 3 4 5 -9 34 -28 63 -19 30 -35 59 -35 66 0 7 -4 13 -8 13 -5 0 -17 19 -26 43 -10 23 -25 58 -33 77 -8 19 -26 69 -40 110 -13 41 -31 85 -39 97 -16 26 -19 46 -3 23 8 -12 9 -9 5 11 -19 90 -26 195 -26 436 l0 273 -385 2 -385 3 0 534 c0 294 2 536 5 539 3 3 5 0 5 -6 0 -9 93 -12 378 -10 l377 3 3 1178 2 1177 -1044 0 c-686 0 -1047 -3 -1051 -10z"/>
 </g>
<g id="layer2" fill="#494949" stroke="none">
 <path d="M851 6239 c-89 -20 -122 -34 -56 -24 22 4 52 8 68 9 15 2 30 6 34 9 3 4 35 7 69 7 35 0 66 5 69 10 10 16 -91 10 -184 -11z"/>
 <path d="M4105 5080 l0 -1185 528 -5 c290 -3 527 -2 527 3 0 5 -978 14 -1012 8 -5 0 -8 5 -8 11 0 9 -3 8 -10 -2 -8 -13 -10 -13 -14 0 -4 8 -7 542 -9 1185 l-2 1170 0 -1185z"/>
 <path d="M5228 6252 c6 -5 33 -9 60 -11 50 -2 138 -15 187 -27 17 -4 27 -4 24 0 -3 3 -46 15 -95 26 -89 20 -201 27 -176 12z"/>
 <path d="M625 6161 c-112 -55 -189 -107 -180 -121 3 -6 12 -10 18 -10 7 0 6 4 -3 10 -13 8 -13 10 2 10 9 0 23 9 31 20 9 14 21 18 33 14 14 -4 15 -3 6 4 -10 7 -5 13 19 25 18 8 39 13 47 9 10 -3 13 -1 8 7 -10 16 78 55 124 54 19 0 26 2 16 5 -15 3 -16 6 -5 13 12 7 12 9 -1 9 -8 0 -60 -22 -115 -49z"/>
 <path d="M5524 6196 c11 -9 34 -19 53 -22 18 -3 33 -9 33 -13 0 -4 10 -7 23 -8 23 -1 -58 40 -103 52 -24 6 -24 5 -6 -9z"/>
 <path d="M5656 6134 c-4 -12 -2 -15 9 -10 8 3 15 1 15 -4 0 -5 7 -7 15 -4 8 4 15 1 15 -5 0 -6 7 -11 16 -11 9 0 12 -5 8 -12 -4 -6 -3 -9 2 -6 5 3 25 -5 44 -18 19 -13 29 -24 22 -24 -7 0 -10 -5 -6 -11 5 -8 9 -8 14 1 10 16 50 -17 43 -35 -2 -7 0 -16 6 -20 7 -3 8 0 5 9 -10 25 11 18 25 -8 7 -13 24 -29 37 -35 13 -6 24 -17 24 -26 0 -8 5 -15 11 -15 7 0 17 -8 24 -17 11 -14 10 -20 -4 -31 -9 -7 -10 -10 -3 -7 15 8 62 -13 62 -27 0 -5 -4 -6 -10 -3 -5 3 -10 1 -10 -5 0 -7 6 -10 13 -7 6 2 25 -14 41 -36 24 -32 27 -41 15 -48 -11 -8 -9 -9 6 -7 17 3 20 -2 18 -27 -1 -17 1 -25 5 -18 6 9 13 3 26 -17 9 -17 14 -30 9 -30 -4 0 -3 -4 3 -8 9 -6 39 -82 47 -119 2 -7 7 -16 11 -20 20 -19 -10 71 -54 163 -98 203 -259 377 -451 488 -41 23 -47 25 -53 10z"/>
 <path d="M379 6003 c-67 -60 -136 -136 -178 -194 -52 -74 -95 -149 -84 -149 4 0 22 26 40 58 17 31 36 56 42 55 6 -2 11 6 11 16 0 11 15 32 33 47 17 15 31 27 29 28 -2 1 0 9 4 19 5 15 9 16 15 5 7 -11 10 -10 21 1 10 10 10 12 1 7 -15 -8 -17 3 -4 23 5 7 14 10 20 7 6 -4 11 -4 10 1 -3 20 2 34 11 28 6 -3 10 -2 10 4 0 6 6 8 14 5 8 -3 17 -1 21 5 4 7 -1 9 -12 5 -10 -3 -3 8 16 25 19 17 32 33 29 37 -4 3 -25 -12 -49 -33z"/>
 <path d="M81 5601 c-24 -56 -25 -61 -12 -61 9 0 26 48 22 64 -1 5 7 6 19 3 11 -3 23 -1 26 4 3 5 2 9 -3 8 -22 -4 -32 2 -27 16 4 8 4 15 1 15 -2 0 -14 -22 -26 -49z"/>
 <path d="M20 5408 c-15 -66 -24 -201 -12 -173 5 11 12 58 16 104 4 47 11 90 17 97 6 8 6 14 0 18 -5 3 -15 -18 -21 -46z"/>
 <path d="M6224 5435 c3 -16 10 -70 15 -118 9 -97 21 -126 21 -54 0 47 -26 186 -36 196 -4 3 -4 -7 0 -24z"/>
 <path d="M2360 3913 c0 -7 0 -250 0 -540 l0 -528 387 0 388 0 -382 2 -383 3 0 520 0 520 380 0 c209 0 380 3 380 8 0 4 -170 6 -377 4 -296 -2 -378 0 -385 10 -6 10 -8 10 -8 1z"/>
 <path d="M4623 2853 l-523 -3 2 -213 3 -212 2 207 3 207 504 1 c398 0 505 -2 509 -12 4 -10 6 -10 6 0 1 7 4 11 9 9 4 -3 13 1 20 9 10 11 10 14 0 12 -7 -2 -248 -4 -535 -5z"/>
 <path d="M4117 2350 c6 -46 54 -130 90 -156 58 -42 78 -44 519 -44 392 0 424 -1 433 -17 6 -10 11 -13 11 -6 0 6 -5 15 -10 18 -6 4 -8 11 -5 16 4 5 -165 9 -434 9 -319 0 -448 3 -468 12 -42 18 -62 38 -56 56 3 12 2 13 -4 5 -13 -19 -66 82 -58 110 5 16 4 18 -3 8 -8 -12 -11 -11 -15 5 -2 10 -2 3 0 -16z"/>
 <path d="M3133 2305 c0 -22 2 -30 4 -17 2 12 2 30 0 40 -3 9 -5 -1 -4 -23z"/>
 <path d="M3142 2220 c0 -19 2 -27 5 -17 2 9 2 25 0 35 -3 9 -5 1 -5 -18z"/>
 <path d="M3155 2145 c4 -29 3 -36 -4 -25 -18 25 -12 8 14 -45 30 -61 31 -52 5 40 -12 44 -18 55 -15 30z"/>
 <path d="M3201 1981 c-1 -7 11 -41 25 -75 14 -33 33 -78 42 -98 8 -21 18 -38 22 -38 4 0 -10 42 -31 93 -55 129 -58 134 -58 118z"/>
 <path d="M3300 1754 c0 -5 16 -33 35 -63 19 -29 32 -58 28 -63 -4 -7 -1 -8 7 -3 10 6 12 4 7 -9 -4 -10 -3 -15 3 -11 10 6 56 -52 52 -67 -1 -5 2 -7 7 -3 13 7 30 -25 24 -45 -4 -12 -3 -12 5 -1 5 7 11 9 13 5 2 -5 32 -35 65 -66 34 -31 59 -60 55 -64 -3 -4 -1 -4 6 0 6 3 15 0 20 -7 4 -8 20 -22 35 -32 15 -9 25 -22 21 -28 -3 -5 -1 -7 5 -3 16 10 79 -37 76 -57 -1 -9 3 -20 8 -24 6 -3 8 -1 5 4 -4 6 0 13 8 17 8 3 15 2 15 -2 0 -4 10 -8 23 -9 21 -1 21 -1 3 10 -225 139 -349 257 -475 451 -28 44 -51 76 -51 70z"/>
 <path d="M3884 1195 c11 -8 26 -15 34 -15 7 0 10 -5 6 -12 -5 -7 -3 -8 5 -3 11 6 34 0 121 -32 23 -9 38 -10 135 -16 l90 -6 -75 9 c-92 11 -213 42 -274 69 -52 24 -69 27 -42 6z"/>
 <path d="M5137 1114 c-8 -8 1 -24 12 -24 4 0 8 7 8 15 0 16 -9 20 -20 9z"/>
 <path d="M3 975 c5 -72 35 -220 44 -212 2 3 0 22 -6 43 -6 22 -13 77 -17 124 -3 47 -10 92 -16 100 -6 10 -8 -8 -5 -55z"/>
 <path d="M6248 1027 c-5 -10 -8 -42 -8 -71 0 -29 -3 -56 -6 -59 -4 -4 -8 -21 -9 -39 -2 -18 -5 -49 -9 -68 -11 -67 11 3 29 88 16 80 18 187 3 149z"/>
 <path d="M50 741 c0 -26 81 -186 135 -266 62 -92 181 -214 267 -274 89 -62 146 -93 152 -82 3 5 -8 12 -25 16 -17 4 -33 13 -36 21 -3 8 -8 12 -13 9 -4 -2 -16 3 -26 11 -17 14 -17 15 -1 10 11 -3 16 -2 12 4 -4 6 -12 10 -18 9 -7 -1 -19 -1 -27 0 -12 1 -13 3 -1 10 9 6 10 11 2 15 -6 4 -11 1 -11 -6 0 -7 -11 -1 -25 14 -13 14 -33 29 -44 33 -11 3 -23 15 -26 26 -4 10 -12 19 -20 19 -17 0 -54 51 -48 67 2 6 -1 15 -8 19 -7 4 -9 3 -5 -4 3 -6 2 -13 -4 -17 -5 -3 -14 4 -19 17 -5 13 -19 31 -31 41 -15 12 -19 24 -15 40 4 15 3 18 -3 8 -8 -10 -13 -8 -25 10 -9 12 -14 26 -11 30 3 5 -4 14 -16 21 -11 7 -20 20 -20 29 0 9 -9 26 -20 38 -10 13 -27 46 -36 74 -17 53 -34 82 -34 58z"/>
 <path d="M6195 733 c-4 -13 -11 -20 -16 -17 -5 3 -6 -2 -3 -10 3 -8 -5 -37 -17 -66 -16 -38 -25 -48 -31 -38 -8 10 -9 10 -5 -2 5 -18 -27 -82 -37 -73 -4 4 -4 0 -1 -9 4 -9 0 -18 -9 -21 -9 -4 -16 -14 -16 -24 0 -16 -2 -16 -11 -3 -9 13 -10 13 -6 -2 6 -17 -14 -42 -26 -33 -4 3 -5 2 -2 -1 2 -4 -5 -20 -17 -36 -16 -23 -23 -27 -30 -16 -8 10 -8 9 -4 -4 3 -10 1 -18 -5 -18 -6 0 -8 -4 -4 -9 6 -11 -52 -58 -66 -53 -5 1 -8 -4 -7 -10 2 -8 -5 -12 -16 -10 -13 2 -17 -1 -13 -11 5 -14 -41 -57 -63 -57 -5 0 -10 -4 -10 -10 0 -5 -8 -7 -17 -4 -13 4 -14 3 -5 -3 9 -7 5 -13 -15 -24 -16 -8 -31 -18 -34 -22 -3 -4 -16 -9 -27 -10 -12 -1 -22 -7 -22 -15 0 -10 14 -6 48 14 142 82 289 220 375 351 57 86 130 239 123 256 -3 7 -8 2 -11 -10z"/>
 <path d="M665 80 c61 -29 91 -37 81 -21 -3 4 -26 14 -51 21 -25 7 -45 17 -45 21 0 5 -10 9 -22 8 -16 0 -4 -10 37 -29z"/>
 <path d="M5573 86 c-35 -11 -63 -25 -63 -29 0 -11 32 -1 95 28 62 29 50 29 -32 1z"/>
 <path d="M762 45 c11 -11 186 -45 233 -45 83 0 38 18 -60 24 -50 4 -106 11 -125 16 -38 11 -56 13 -48 5z"/>
 <path d="M5420 35 c-30 -7 -80 -14 -110 -15 -75 -2 -113 -18 -45 -19 47 -1 222 33 233 44 7 7 -14 4 -78 -10z"/>
 </g>

</svg>