<!DOCTYPE svg PUBLIC "-//W3C//DTD SVG 20010904//EN" "http://www.w3.org/TR/2001/REC-SVG-20010904/DTD/svg10.dtd">
<svg version="1.0" xmlns="http://www.w3.org/2000/svg" width="626px" height="626px" viewBox="0 0 6260 6260" preserveAspectRatio="xMidYMid meet">
<g id="layer1" fill="#000000" stroke="none">
 <path d="M970 6254 c-14 -2 -68 -9 -120 -15 -376 -45 -757 -414 -828 -802 -16 -85 -17 -271 -17 -2292 0 -2373 -1 -2311 52 -2455 85 -229 280 -451 505 -574 90 -49 159 -75 257 -94 79 -16 257 -17 2291 -17 2378 0 2316 -1 2460 52 326 120 604 437 668 760 16 82 17 245 17 2313 0 2068 -1 2231 -17 2313 -73 370 -422 721 -790 794 -70 14 -182 17 -716 20 l-632 4 2 -1183 3 -1183 515 -5 515 -5 0 -510 0 -510 -515 -5 -515 -5 0 -270 0 -271 35 -58 c23 -37 50 -66 76 -82 l41 -24 429 0 c236 0 435 -4 442 -8 10 -7 12 -116 10 -513 l-3 -504 -475 0 -475 0 -109 28 c-121 30 -261 95 -371 172 -157 110 -336 326 -418 505 -61 132 -65 144 -87 222 -49 181 -52 205 -59 508 l-6 295 -380 5 -380 5 0 510 0 510 380 5 380 5 3 1183 2 1182 -1072 -1 c-590 -1 -1084 -3 -1098 -5z"/>
 </g>

</svg>